<svg width="101" height="78" viewBox="0 0 101 78" fill="none" xmlns="http://www.w3.org/2000/svg">
<g clip-path="url(#clip0_1_142)">
<path d="M101 0H0V78H101V0Z" fill="black"/>
<path d="M12.7254 47.5307C12.5382 47.8827 12.4445 48.2817 12.4445 48.7432V64.0679C12.4445 64.6859 12.6318 65.2648 13.0063 65.8045C13.3574 66.313 13.8099 66.6885 14.3717 66.931C14.7228 67.0874 15.1207 67.1735 15.581 67.1735C16.2208 67.1735 16.7982 67.0014 17.3131 66.6494C17.7969 66.3521 18.1714 65.8984 18.4367 65.2804C18.6005 64.8736 18.6785 64.4747 18.6785 64.0679C18.6785 63.5281 18.8736 63.0666 19.2637 62.6755C19.6538 62.2843 20.1298 62.0888 20.6915 62.0888C21.2299 62.0888 21.6902 62.2843 22.0803 62.6755C22.4704 63.0666 22.6655 63.5281 22.6655 64.0679C22.6655 64.7641 22.5562 65.4525 22.3456 66.1253C22.1271 66.798 21.8384 67.4316 21.4639 68.0183C20.6837 69.1996 19.6382 70.0601 18.3274 70.5998C17.4458 70.9753 16.5329 71.1631 15.5967 71.1631C14.2001 71.1631 12.8737 70.7641 11.6175 69.9505C10.4628 69.1683 9.62014 68.12 9.08178 66.8058C8.70727 65.9219 8.52002 65.0066 8.52002 64.0679V48.7432C8.52002 47.2726 8.91793 45.9349 9.72937 44.7537C10.5096 43.5959 11.5395 42.7511 12.8269 42.2113C13.6539 41.8358 14.5824 41.6481 15.6045 41.6481C17.0557 41.6481 18.3664 42.0549 19.5446 42.8606C20.7227 43.6429 21.581 44.6754 22.1193 45.9662C22.4938 46.8814 22.6811 47.8045 22.6811 48.7432C22.6811 49.283 22.486 49.7445 22.0959 50.1357C21.7058 50.5268 21.2455 50.7224 20.7071 50.7224C20.1454 50.7224 19.6694 50.5268 19.2793 50.1357C18.8892 49.7445 18.6941 49.283 18.6941 48.7432C18.6941 48.0705 18.5147 47.4838 18.1714 46.9675C17.8281 46.459 17.3678 46.0835 16.806 45.841C16.4315 45.6768 16.0258 45.5985 15.5967 45.5985C15.0037 45.5985 14.4341 45.7784 13.8646 46.1226C13.3028 46.4981 12.9205 46.9675 12.741 47.5307H12.7254Z" fill="white"/>
<path d="M26.395 71.1161C25.8566 71.0301 25.4431 70.7563 25.1466 70.2713C24.7955 69.841 24.6941 69.356 24.8267 68.8241C25.6069 64.5764 26.3013 60.7432 26.9177 57.3326C27.183 55.8775 27.4483 54.4538 27.6979 53.0535C27.9554 51.6533 28.1817 50.4017 28.3767 49.283C28.5796 48.1644 28.7512 47.2491 28.8839 46.5451C29.0165 45.8332 29.0945 45.4342 29.1257 45.356C29.3364 44.253 29.8592 43.3691 30.694 42.6963C31.521 42.0001 32.4729 41.6481 33.5496 41.6481C34.6263 41.6481 35.6172 42.0001 36.4442 42.6963C37.2713 43.3691 37.8018 44.253 38.0125 45.356C38.0125 45.4342 38.0827 45.8254 38.2154 46.5294C38.348 47.2256 38.5196 48.1331 38.7225 49.2517C38.9254 50.3704 39.1516 51.622 39.4091 53.0223C39.6666 54.4225 39.924 55.8462 40.1893 57.3013C40.8057 60.712 41.5157 64.5607 42.3193 68.8319C42.452 69.3717 42.3427 69.8567 41.9994 70.2791C41.703 70.7641 41.2894 71.0457 40.7511 71.124C40.6731 71.1474 40.5482 71.1631 40.3844 71.1631C39.9006 71.1631 39.4793 71.0066 39.1204 70.7015C38.7615 70.3964 38.5274 69.9975 38.4182 69.5125L37.1699 62.7771C37.1152 62.4017 36.889 62.2139 36.4833 62.2139H30.655C30.2571 62.2139 30.0074 62.4017 29.9294 62.7771L28.72 69.5125C28.6108 69.9975 28.3767 70.3964 28.0178 70.7015C27.6589 71.0144 27.2376 71.1631 26.7539 71.1631C26.59 71.1631 26.473 71.1474 26.3872 71.124L26.395 71.1161ZM30.9437 57.403C30.9203 57.5907 30.9671 57.7784 31.1075 57.9662C31.2167 58.1226 31.3884 58.2087 31.6303 58.2087H35.4924C35.7342 58.2087 35.9215 58.1305 36.0541 57.9662C36.1868 57.7784 36.2414 57.5907 36.2102 57.403C35.9995 56.3 35.7967 55.2204 35.6094 54.1565C35.4222 53.0927 35.2427 52.0992 35.0633 51.1761C34.8916 50.2452 34.7356 49.416 34.6029 48.6728C34.4703 47.9375 34.361 47.3352 34.283 46.8814C34.1738 46.506 33.9319 46.3182 33.5574 46.3182C33.1829 46.3182 32.9566 46.506 32.8708 46.8814C32.7928 47.343 32.6836 47.9375 32.5509 48.6728C32.4183 49.416 32.2622 50.2452 32.0906 51.1761C31.9189 52.107 31.7317 53.1005 31.5288 54.1565C31.326 55.2204 31.1309 56.3 30.9437 57.403Z" fill="white"/>
<path d="M49.115 69.1448C49.115 69.708 48.92 70.1852 48.5299 70.5764C48.1398 70.9675 47.6794 71.1631 47.1411 71.1631C46.6027 71.1631 46.1424 70.9675 45.7523 70.5764C45.3622 70.1931 45.1671 69.708 45.1671 69.1448V43.6194C45.1671 43.0562 45.3544 42.5868 45.7289 42.2113C46.1034 41.8358 46.5715 41.6481 47.1333 41.6481H51.6352C53.5389 41.6481 55.2866 42.1722 56.8627 43.2204C58.3607 44.2452 59.492 45.6142 60.241 47.3352C60.7248 48.5242 60.9667 49.7289 60.9667 50.9649C60.9667 52.8502 60.4283 54.5946 59.3594 56.2061C58.3139 57.7393 56.9407 58.858 55.2554 59.5542C54.1553 60.0627 52.9459 60.3208 51.6352 60.3208H49.8251C49.6378 60.3208 49.474 60.3912 49.3413 60.5242C49.1853 60.6572 49.0994 60.8215 49.0994 61.0092V69.1526L49.115 69.1448ZM49.115 55.635C49.115 55.8228 49.1853 55.9871 49.3179 56.12C49.4505 56.253 49.63 56.3234 49.8407 56.3234H51.6508C52.7275 56.3234 53.734 56.0105 54.6702 55.4004C55.5519 54.8058 56.1995 54.0314 56.5974 53.0614C56.8627 52.4434 56.9953 51.7472 56.9953 50.9649C56.9953 49.8932 56.6832 48.8919 56.0746 47.9844C55.5129 47.124 54.7327 46.4747 53.7418 46.0522C53.0708 45.755 52.3764 45.6063 51.6508 45.6063H49.8407C49.63 45.6063 49.4505 45.6768 49.3179 45.8097C49.1853 45.9427 49.115 46.1226 49.115 46.3339V55.6507V55.635Z" fill="white"/>
<path d="M69.3073 46.1618C68.8001 46.5138 68.4256 46.9675 68.1837 47.5307C68.0199 47.9062 67.9419 48.313 67.9419 48.7432C67.9419 49.2283 68.0355 49.6741 68.2228 50.0731C68.3866 50.5346 68.6675 51.0275 69.0654 51.5672C69.3853 52.0288 69.8144 52.5138 70.3528 53.0379C70.8911 53.562 71.5621 54.1722 72.3657 54.8684C72.709 55.1657 73.0913 55.4942 73.5127 55.8541C73.9262 56.2217 74.3397 56.6129 74.7376 57.0431C75.1667 57.4734 75.5334 57.8801 75.8455 58.2713C76.1576 58.6624 76.4385 59.0457 76.7116 59.4212C77.1407 60.0705 77.4528 60.6728 77.6401 61.2361C78.0146 62.2061 78.2018 63.1448 78.2018 64.0601C78.2018 65.4838 77.7883 66.798 76.9535 68.0105C76.1732 69.137 75.1433 69.9975 73.856 70.592C72.9431 70.9675 72.0302 71.1552 71.1174 71.1552C69.674 71.1552 68.3398 70.7406 67.1382 69.9036C65.9835 69.1213 65.1253 68.0887 64.5635 66.798C64.2124 65.9375 64.0408 65.0223 64.0408 64.0601C64.0408 63.4968 64.2358 63.0196 64.6259 62.6285C65.016 62.2374 65.4764 62.0496 66.0147 62.0496C66.5531 62.0496 67.0134 62.2452 67.4035 62.6285C67.7936 63.0196 67.9887 63.4968 67.9887 64.0601C67.9887 64.6233 68.1603 65.2256 68.5114 65.7967C68.8859 66.3052 69.3385 66.6807 69.8768 66.9232C70.2747 67.0796 70.6961 67.1657 71.1252 67.1657C71.765 67.1657 72.3423 66.9936 72.8573 66.6416C73.3644 66.2661 73.7389 65.8123 73.9886 65.2726C74.1525 64.8658 74.2305 64.4512 74.2305 64.0209C74.2305 63.5359 74.1368 63.09 73.9496 62.6911C73.7857 62.2374 73.5205 61.7524 73.146 61.2439C72.7949 60.7902 72.3579 60.2895 71.8352 59.7498C71.3124 59.21 70.6336 58.592 69.8066 57.8958C69.2995 57.4421 68.7845 56.9727 68.2618 56.5034C67.739 56.034 67.2475 55.5333 66.7949 54.9936C65.7494 53.8671 65.0004 52.725 64.5401 51.5672C64.1656 50.5972 63.9783 49.6585 63.9783 48.7432C63.9783 48.0157 64.0876 47.3195 64.306 46.6468C64.5167 45.974 64.8132 45.3404 65.1877 44.7537C66.0459 43.5724 67.0914 42.7276 68.3242 42.2113C69.159 41.8358 70.0641 41.6481 71.055 41.6481C72.5296 41.6481 73.856 42.0549 75.0341 42.8606C76.1576 43.6429 77.0159 44.6754 77.6088 45.9662C77.9599 46.8267 78.1316 47.7498 78.1316 48.7432C78.1316 49.283 77.9365 49.7445 77.5542 50.1357C77.1641 50.5268 76.7038 50.7224 76.1654 50.7224C75.6271 50.7224 75.1667 50.5268 74.7766 50.1357C74.3865 49.7445 74.1915 49.283 74.1915 48.7432C74.1915 48.1253 74.012 47.5307 73.6687 46.9675C73.2942 46.459 72.8261 46.0835 72.2565 45.841C71.882 45.6768 71.4763 45.5985 71.0472 45.5985C70.4308 45.5985 69.8534 45.7863 69.3151 46.1618H69.3073Z" fill="white"/>
<path d="M49.4974 37.6976C48.959 37.6193 48.5455 37.3299 48.249 36.8527C47.8979 36.4225 47.7965 35.9375 47.9291 35.3977C48.7094 31.15 49.4038 27.3247 50.0201 23.9062C50.2854 22.459 50.5507 21.0274 50.8004 19.635C51.0578 18.2347 51.2841 16.9831 51.4869 15.8644C51.6898 14.7458 51.8537 13.8384 51.9941 13.1187C52.1267 12.4068 52.2048 12.0079 52.236 11.9296C52.4466 10.8266 52.9694 9.94267 53.8042 9.26992C54.6313 8.5737 55.5831 8.22168 56.6598 8.22168C57.7365 8.22168 58.7196 8.5737 59.5545 9.26992C60.3815 9.94267 60.9043 10.8266 61.1227 11.9296C61.1227 12.0079 61.1851 12.399 61.3256 13.0952C61.4582 13.7914 61.6299 14.6989 61.8249 15.8175C62.0278 16.9362 62.254 18.1956 62.5115 19.588C62.7612 20.9883 63.0265 22.412 63.2917 23.8592C63.9081 27.2777 64.6181 31.1187 65.4217 35.3899C65.5544 35.9296 65.4452 36.4146 65.1019 36.8449C64.8054 37.3299 64.3919 37.6115 63.8535 37.6897C63.7755 37.7132 63.6506 37.7289 63.4946 37.7289C63.0109 37.7289 62.5895 37.5724 62.2306 37.2673C61.8717 36.9544 61.6377 36.5633 61.5284 36.0783L60.2801 29.3429C60.2255 28.9674 59.9992 28.7797 59.6013 28.7797H53.773C53.3673 28.7797 53.1332 28.9674 53.0474 29.3429L51.8381 36.0783C51.7288 36.5633 51.4948 36.9544 51.1359 37.2673C50.7769 37.5802 50.3556 37.7289 49.8719 37.7289C49.708 37.7289 49.591 37.7132 49.513 37.6897L49.4974 37.6976ZM54.0383 23.9844C54.0071 24.1721 54.0695 24.3599 54.2021 24.5476C54.3114 24.7119 54.483 24.7901 54.7249 24.7901H58.587C58.8289 24.7901 59.0161 24.7119 59.1487 24.5476C59.2814 24.3599 59.336 24.1721 59.3126 23.9844C59.0941 22.8814 58.8991 21.8019 58.7118 20.738C58.5246 19.6741 58.3451 18.6806 58.1657 17.7575C57.994 16.8266 57.838 15.9974 57.7053 15.2543C57.5727 14.5189 57.4635 13.9166 57.3854 13.4629C57.2762 13.0874 57.0343 12.8996 56.6598 12.8996C56.2853 12.8996 56.0591 13.0874 55.9732 13.4629C55.8952 13.9166 55.786 14.5189 55.6533 15.2543C55.5207 15.9974 55.3647 16.8266 55.193 17.7575C55.0214 18.6884 54.8341 19.6819 54.6312 20.738C54.4284 21.8019 54.2333 22.8814 54.0461 23.9844H54.0383Z" fill="white"/>
<path d="M70.4464 8.22169C70.9848 8.22169 71.4451 8.41726 71.8352 8.80839C72.2253 9.19953 72.4204 9.66106 72.4204 10.2008V33.0587C72.4204 33.2465 72.4906 33.4107 72.6232 33.5437C72.7559 33.6767 72.9275 33.7471 73.146 33.7471H78.1316C78.67 33.7471 79.1303 33.9427 79.5204 34.3338C79.9105 34.7249 80.1056 35.1865 80.1056 35.7263C80.1056 36.266 79.9105 36.7667 79.5204 37.1578C79.1303 37.5489 78.67 37.7445 78.1316 37.7445H70.4464C69.908 37.7445 69.4399 37.5489 69.042 37.1578C68.6363 36.7667 68.4412 36.2895 68.4412 35.7263V10.193C68.4412 9.65324 68.6441 9.1917 69.042 8.80057C69.4399 8.40943 69.9158 8.21387 70.4464 8.21387V8.22169Z" fill="white"/>
<path d="M84.0769 8.22169C84.6152 8.22169 85.0756 8.41726 85.4657 8.80839C85.8558 9.19953 86.0509 9.66106 86.0509 10.2008V33.0587C86.0509 33.2465 86.1211 33.4107 86.2537 33.5437C86.3864 33.6767 86.558 33.7471 86.7765 33.7471H91.7621C92.3005 33.7471 92.7608 33.9427 93.1431 34.3338C93.5332 34.7249 93.7283 35.1865 93.7283 35.7263C93.7283 36.266 93.5332 36.7667 93.1431 37.1578C92.753 37.5489 92.2926 37.7445 91.7621 37.7445H84.0847C83.5463 37.7445 83.0782 37.5489 82.6725 37.1578C82.2746 36.7667 82.0717 36.2895 82.0717 35.7263V10.193C82.0717 9.65324 82.2746 9.1917 82.6725 8.80057C83.0782 8.40943 83.5463 8.21387 84.0847 8.21387L84.0769 8.22169Z" fill="white"/>
<path d="M13.8489 12.7432C13.3418 13.0952 12.9673 13.5489 12.7254 14.1122C12.5616 14.4876 12.4836 14.8944 12.4836 15.3247C12.4836 15.8097 12.5772 16.2556 12.7644 16.6545C12.9283 17.1161 13.2092 17.6089 13.6071 18.1487C13.927 18.6102 14.3561 19.0952 14.8944 19.6193C15.4328 20.1434 16.1038 20.7536 16.9074 21.4498C17.2507 21.7471 17.633 22.0756 18.0544 22.4355C18.4679 22.8032 18.8814 23.1943 19.2793 23.6245C19.7084 24.0548 20.0751 24.4616 20.3872 24.8527C20.6993 25.2438 20.9802 25.6271 21.2533 26.0026C21.6824 26.6519 21.9945 27.2543 22.1817 27.8175C22.5562 28.7875 22.7435 29.7262 22.7435 30.6415C22.7435 32.0652 22.33 33.3794 21.4951 34.5919C20.7149 35.7184 19.685 36.5789 18.3977 37.1734C17.4848 37.5489 16.5719 37.7367 15.6591 37.7367C14.2157 37.7367 12.8815 37.3221 11.6799 36.485C10.5252 35.7028 9.66695 34.6702 9.10519 33.3794C8.75409 32.5189 8.58244 31.6037 8.58244 30.6415C8.58244 30.0783 8.77749 29.6011 9.16761 29.2099C9.55772 28.8188 10.018 28.6311 10.5564 28.6311C11.0948 28.6311 11.5551 28.8266 11.9452 29.2099C12.3353 29.6011 12.5304 30.0783 12.5304 30.6415C12.5304 31.2047 12.702 31.8071 13.0531 32.3781C13.4276 32.8866 13.8802 33.2621 14.4185 33.5046C14.8164 33.661 15.2377 33.7471 15.6669 33.7471C16.3067 33.7471 16.884 33.575 17.399 33.223C17.9061 32.8475 18.2806 32.3938 18.5303 31.854C18.6941 31.4472 18.7722 31.0326 18.7722 30.6024C18.7722 30.1174 18.6785 29.6715 18.4913 29.2725C18.3274 28.8188 18.0622 28.3338 17.6877 27.8253C17.3366 27.3716 16.8996 26.871 16.3769 26.3312C15.8541 25.7914 15.1753 25.1734 14.3483 24.4772C13.8411 24.0235 13.3262 23.5541 12.8034 23.0848C12.2807 22.6154 11.7892 22.1148 11.3366 21.575C10.2911 20.4485 9.54211 19.3064 9.08178 18.1487C8.70727 17.1786 8.52002 16.2399 8.52002 15.3247C8.52002 14.5972 8.62925 13.9009 8.84771 13.2282C9.05837 12.5554 9.35486 11.9218 9.72937 11.3351C10.5876 10.1539 11.6331 9.30902 12.8659 8.79273C13.7007 8.41724 14.6058 8.22949 15.5967 8.22949C17.0713 8.22949 18.3977 8.63627 19.5758 9.44201C20.6993 10.2243 21.5576 11.2569 22.1505 12.5476C22.5016 13.4081 22.6733 14.3312 22.6733 15.3247C22.6733 15.8644 22.4782 16.326 22.0959 16.7171C21.7058 17.1082 21.2455 17.3038 20.7071 17.3038C20.1688 17.3038 19.7084 17.1082 19.3183 16.7171C18.9282 16.326 18.7332 15.8644 18.7332 15.3247C18.7332 14.7067 18.5537 14.1122 18.2104 13.5489C17.8359 13.0404 17.3678 12.665 16.7982 12.4225C16.4237 12.2582 16.018 12.1799 15.5888 12.1799C14.9725 12.1799 14.3951 12.3677 13.8568 12.7432H13.8489Z" fill="white"/>
<path d="M26.4261 35.7262V10.193C26.4261 9.70799 26.5744 9.29339 26.8709 8.94137C27.1674 8.58935 27.5419 8.37031 28.0022 8.26079C28.0802 8.23733 28.2207 8.22168 28.4157 8.22168C29.2818 8.22168 29.8825 8.61281 30.2258 9.38726L35.3675 21.0039C35.3909 21.1604 35.5158 21.2386 35.7186 21.2386C35.8981 21.2386 36.0385 21.1604 36.1321 21.0039L41.2348 9.38726C41.3908 9.00395 41.6405 8.71451 41.9682 8.51894C42.3037 8.32337 42.6548 8.22168 43.0371 8.22168C43.2166 8.22168 43.357 8.23733 43.4506 8.26079C43.911 8.36249 44.2933 8.58935 44.5976 8.94137C44.9019 9.28557 45.0579 9.70799 45.0579 10.193V35.7262C45.0579 36.2895 44.855 36.7667 44.4493 37.15C44.0436 37.5411 43.5755 37.7289 43.0371 37.7289C42.4988 37.7289 42.0384 37.5333 41.6561 37.15C41.266 36.7667 41.0788 36.2895 41.0788 35.7262V21.6063C41.0788 21.3951 40.9695 21.2621 40.7433 21.1917H40.6262C40.4702 21.1917 40.3531 21.2777 40.2751 21.4498L37.5443 27.6141C37.3883 27.9661 37.1464 28.2478 36.8187 28.459C36.491 28.6702 36.1243 28.7719 35.7186 28.7719C35.3363 28.7719 34.9852 28.6702 34.6575 28.459C34.3298 28.2478 34.0801 27.9661 33.9085 27.6141L31.2167 21.4498C31.1387 21.2386 30.9749 21.1526 30.7252 21.1917C30.5145 21.2465 30.4131 21.3794 30.4131 21.6063V35.7262C30.4131 36.2895 30.2102 36.7667 29.8123 37.15C29.4144 37.5411 28.9463 37.7289 28.4079 37.7289C27.8696 37.7289 27.4092 37.5333 27.0113 37.15C26.6212 36.7667 26.4261 36.2895 26.4261 35.7262Z" fill="white"/>
</g>
<defs>
<clipPath id="clip0_1_142">
<rect width="101" height="78" fill="white"/>
</clipPath>
</defs>
</svg>
