<svg width="38" height="33" viewBox="0 0 38 33" fill="none" xmlns="http://www.w3.org/2000/svg">
<path d="M1.50668 15.3392C1.23076 15.2933 1.01922 15.1556 0.862869 14.9078C0.678922 14.6875 0.632936 14.4397 0.697317 14.1643C1.102 11.989 1.46069 10.0248 1.7734 8.27173C1.91136 7.52827 2.04932 6.79399 2.17809 6.07806C2.30685 5.36214 2.42641 4.71964 2.52758 4.1414C2.62876 3.57233 2.72073 3.10422 2.78511 2.73708C2.84949 2.36994 2.89548 2.16801 2.90468 2.1313C3.01504 1.56223 3.28177 1.11248 3.71404 0.763701C4.14631 0.405739 4.63377 0.222168 5.18561 0.222168C5.73745 0.222168 6.2525 0.39656 6.67558 0.763701C7.10785 1.11248 7.37457 1.56223 7.48494 2.1313C7.48494 2.16801 7.52173 2.36994 7.58611 2.7279C7.65969 3.08587 7.74247 3.55397 7.84364 4.12304C7.94481 4.69211 8.06437 5.34378 8.19314 6.05971C8.3219 6.77563 8.45986 7.50991 8.59782 8.25338C8.91972 10.0065 9.27842 11.9707 9.6923 14.1643C9.76588 14.4397 9.7015 14.6875 9.52675 14.9078C9.37959 15.1556 9.15886 15.3025 8.88294 15.3392C8.83695 15.3576 8.78176 15.3576 8.69899 15.3576C8.45066 15.3576 8.22993 15.2749 8.04598 15.1189C7.86203 14.9629 7.74247 14.7609 7.68728 14.5131L7.04347 11.062C7.01588 10.8693 6.89631 10.7775 6.69397 10.7775H3.68645C3.47491 10.7775 3.35534 10.8693 3.30936 11.062L2.68394 14.5131C2.62875 14.7609 2.50919 14.9629 2.32524 15.1189C2.1413 15.2749 1.92056 15.3576 1.67223 15.3576C1.58946 15.3576 1.52508 15.3576 1.48829 15.3392M3.8336 8.30845C3.81521 8.40941 3.852 8.50119 3.91638 8.60216C3.97156 8.68476 4.06354 8.73066 4.1831 8.73066H6.16973C6.29849 8.73066 6.39046 8.69394 6.46404 8.60216C6.52842 8.51037 6.55601 8.40941 6.54682 8.30845C6.43645 7.73938 6.33528 7.18867 6.23411 6.64713C6.13294 6.1056 6.04096 5.5916 5.94899 5.11432C5.85702 4.63704 5.78344 4.21482 5.70986 3.82933C5.63628 3.45301 5.5811 3.14094 5.54431 2.91148C5.48912 2.71873 5.36956 2.61776 5.16722 2.61776C4.96488 2.61776 4.85451 2.70955 4.81772 2.91148C4.78093 3.15012 4.71655 3.45301 4.65217 3.82933C4.57859 4.20565 4.50501 4.63704 4.41304 5.11432C4.32106 5.5916 4.22909 6.09642 4.11872 6.64713C4.01755 7.18867 3.91638 7.74856 3.81521 8.30845" fill="white"/>
<path d="M12.2952 0.222069C12.5711 0.222069 12.8102 0.323033 13.0125 0.52496C13.2149 0.726888 13.3161 0.965529 13.3161 1.24089V12.9619C13.3161 13.0628 13.3528 13.1454 13.4172 13.2097C13.4816 13.2831 13.5736 13.3106 13.684 13.3106H16.25C16.5259 13.3106 16.7651 13.4116 16.9674 13.6135C17.1697 13.8155 17.2709 14.0541 17.2709 14.3295C17.2709 14.6048 17.1697 14.8618 16.9674 15.0637C16.7651 15.2657 16.5259 15.3666 16.25 15.3666H12.2952C12.0192 15.3666 11.7801 15.2657 11.5686 15.0637C11.357 14.8618 11.2559 14.614 11.2559 14.3295V1.23171C11.2559 0.956351 11.357 0.717709 11.5686 0.515782C11.7801 0.313854 12.0192 0.212891 12.2952 0.212891" fill="white"/>
<path d="M19.3219 0.222069C19.5978 0.222069 19.8369 0.323033 20.0393 0.52496C20.2416 0.726888 20.3428 0.965529 20.3428 1.24089V12.9619C20.3428 13.0628 20.3796 13.1454 20.444 13.2097C20.5083 13.2831 20.6003 13.3106 20.7107 13.3106H23.2767C23.5527 13.3106 23.7918 13.4116 23.9941 13.6135C24.1965 13.8155 24.2976 14.0541 24.2976 14.3295C24.2976 14.6048 24.1965 14.8618 23.9941 15.0637C23.7918 15.2657 23.5527 15.3666 23.2767 15.3666H19.3219C19.046 15.3666 18.8068 15.2657 18.5953 15.0637C18.393 14.8618 18.2826 14.614 18.2826 14.3295V1.23171C18.2826 0.956351 18.3838 0.717709 18.5953 0.515782C18.8068 0.313854 19.046 0.212891 19.3219 0.212891" fill="white"/>
<path d="M3.57611 20.3689C3.47493 20.5524 3.42895 20.7544 3.42895 20.993V28.8498C3.42895 29.1619 3.52092 29.4648 3.72326 29.7401C3.89801 29.9971 4.13714 30.1899 4.43146 30.3184C4.60621 30.401 4.81774 30.4469 5.05687 30.4469C5.38798 30.4469 5.68229 30.3551 5.94901 30.1807C6.19734 30.0247 6.39049 29.7952 6.52845 29.4739C6.61122 29.2628 6.65721 29.0609 6.65721 28.8498C6.65721 28.5745 6.75838 28.3358 6.96072 28.1339C7.16306 27.932 7.40219 27.831 7.69651 27.831C7.97243 27.831 8.21156 27.932 8.4139 28.1339C8.61624 28.3358 8.71741 28.5745 8.71741 28.8498C8.71741 29.2078 8.66223 29.5566 8.55186 29.9053C8.44149 30.2541 8.29433 30.5754 8.09199 30.8783C7.68731 31.484 7.15386 31.9246 6.47326 32.2C6.0134 32.3927 5.54433 32.4937 5.06607 32.4937C4.34868 32.4937 3.66808 32.2918 3.01507 31.8695C2.41724 31.4657 1.98497 30.9333 1.70905 30.2541C1.5159 29.7952 1.41473 29.3271 1.41473 28.8498V20.993C1.41473 20.2404 1.61707 19.552 2.04015 18.9462C2.44483 18.3496 2.96908 17.9182 3.64049 17.6428C4.07276 17.4501 4.54182 17.3491 5.06607 17.3491C5.81106 17.3491 6.49166 17.5602 7.09868 17.9733C7.7057 18.3679 8.14718 18.9003 8.4231 19.5611C8.61624 20.0292 8.70821 20.5065 8.70821 20.9838C8.70821 21.2592 8.60704 21.4978 8.4047 21.6997C8.20236 21.9017 7.96323 22.0026 7.68731 22.0026C7.39299 22.0026 7.15386 21.9017 6.95152 21.6997C6.74918 21.4978 6.64801 21.2592 6.64801 20.9838C6.64801 20.6442 6.55604 20.3413 6.38129 20.0751C6.20654 19.809 5.96741 19.6162 5.6731 19.4969C5.47995 19.4143 5.26841 19.3684 5.04768 19.3684C4.74417 19.3684 4.44985 19.4602 4.15554 19.6346C3.87042 19.8273 3.66808 20.066 3.57611 20.3597" fill="white"/>
<path d="M10.6028 32.4663C10.3269 32.4204 10.1154 32.2827 9.959 32.0349C9.77505 31.8146 9.72907 31.5668 9.79345 31.2914C10.1981 29.1161 10.5568 27.1519 10.8695 25.3988C11.0075 24.6554 11.1455 23.9211 11.2742 23.2052C11.403 22.4892 11.5225 21.8467 11.6237 21.2685C11.7249 20.6994 11.8169 20.2313 11.8812 19.8642C11.9456 19.497 11.9916 19.2951 12.01 19.2492C12.1204 18.6893 12.3871 18.2304 12.8194 17.8816C13.2424 17.5237 13.7391 17.3401 14.2909 17.3401C14.8428 17.3401 15.3578 17.5237 15.7809 17.8816C16.204 18.2212 16.4799 18.6802 16.5903 19.2492C16.5903 19.2951 16.6271 19.4879 16.6914 19.8458C16.765 20.2038 16.8478 20.6719 16.949 21.241C17.0501 21.81 17.1697 22.4525 17.2985 23.1776C17.4272 23.8936 17.5652 24.6278 17.7031 25.3713C18.0159 27.1244 18.3837 29.0978 18.7976 31.2823C18.862 31.5576 18.8068 31.8054 18.6321 32.0257C18.4849 32.2735 18.2642 32.4204 17.9883 32.4571C17.9423 32.4663 17.8871 32.4755 17.8043 32.4755C17.556 32.4755 17.3353 32.3929 17.1513 32.2368C16.9674 32.0808 16.8478 31.8789 16.7926 31.631L16.1488 28.1799C16.1212 27.9872 16.0016 27.8862 15.7993 27.8862H12.7918C12.5894 27.8862 12.4607 27.978 12.4147 28.1799L11.7893 31.631C11.7341 31.8789 11.6145 32.0808 11.4214 32.2368C11.2374 32.3929 11.0167 32.4755 10.7684 32.4755C10.6856 32.4755 10.6212 32.4755 10.5844 32.4571M12.9297 25.4264C12.9113 25.5273 12.9481 25.6191 13.0125 25.7201C13.0677 25.8027 13.1597 25.8486 13.2792 25.8486H15.2659C15.3946 25.8486 15.4866 25.8027 15.5602 25.7201C15.6337 25.6191 15.6521 25.5273 15.6429 25.4264C15.5326 24.8573 15.4314 24.3066 15.3302 23.7651C15.2291 23.2235 15.1371 22.7095 15.0543 22.2322C14.9623 21.755 14.8796 21.3327 14.8152 20.9472C14.7416 20.5709 14.6956 20.2589 14.6496 20.0294C14.5945 19.8366 14.4657 19.7357 14.2725 19.7357C14.0794 19.7357 13.9598 19.8366 13.923 20.0294C13.8771 20.268 13.8219 20.5709 13.7575 20.9472C13.6931 21.3236 13.6103 21.755 13.5184 22.2322C13.4264 22.7095 13.3344 23.2143 13.224 23.7651C13.1229 24.3066 13.0217 24.8665 12.9205 25.4264" fill="white"/>
<path d="M22.3018 31.4565C22.3018 31.7502 22.2006 31.9889 21.9983 32.1908C21.796 32.3927 21.5568 32.4937 21.2809 32.4937C21.005 32.4937 20.7659 32.3927 20.5635 32.1908C20.3612 31.9889 20.26 31.7502 20.26 31.4565V18.3679C20.26 18.0742 20.3612 17.8356 20.5543 17.6428C20.7475 17.4501 20.9866 17.3491 21.2809 17.3491H23.5986C24.5828 17.3491 25.4749 17.6153 26.2935 18.1568C27.066 18.68 27.6455 19.3868 28.0317 20.2679C28.2801 20.8737 28.3996 21.4978 28.3996 22.1311C28.3996 23.0949 28.1237 23.9944 27.5719 24.8204C27.0292 25.6098 26.3302 26.1789 25.4565 26.5368C24.8863 26.803 24.27 26.9315 23.5894 26.9315H22.6605C22.5685 26.9315 22.4766 26.9682 22.4122 27.0325C22.3294 27.1059 22.2926 27.1885 22.2926 27.2803V31.4565H22.3018ZM22.3018 24.5267C22.3018 24.6185 22.3386 24.7011 22.403 24.7745C22.4766 24.848 22.5593 24.8755 22.6697 24.8755H23.5986C24.1505 24.8755 24.6747 24.7195 25.153 24.3982C25.6129 24.0953 25.9348 23.6915 26.1463 23.1958C26.2843 22.8838 26.3486 22.5258 26.3486 22.122C26.3486 21.5712 26.1923 21.0572 25.8704 20.5891C25.5761 20.1486 25.1806 19.8181 24.6655 19.5979C24.3252 19.4418 23.9573 19.3684 23.5894 19.3684H22.6605C22.5501 19.3684 22.4582 19.4051 22.3938 19.4694C22.3294 19.5428 22.2926 19.6254 22.2926 19.7355V24.5084L22.3018 24.5267Z" fill="white"/>
<path d="M32.704 19.6714C32.4373 19.855 32.2442 20.0844 32.1246 20.369C32.0418 20.5617 31.9958 20.7728 31.9958 20.9931C31.9958 21.2409 32.0418 21.4704 32.143 21.6723C32.2258 21.9109 32.3729 22.1588 32.5753 22.4341C32.7408 22.6728 32.9615 22.9206 33.2375 23.1868C33.5134 23.4529 33.8629 23.765 34.2768 24.123C34.4515 24.279 34.6539 24.4442 34.8654 24.6278C35.0769 24.8114 35.2885 25.0133 35.5 25.2427C35.7207 25.463 35.9139 25.6741 36.0702 25.8761C36.2266 26.078 36.3738 26.2707 36.5117 26.4635C36.7324 26.7939 36.8888 27.106 36.99 27.3905C37.1831 27.8862 37.2751 28.3726 37.2751 28.8407C37.2751 29.575 37.0636 30.245 36.6313 30.8692C36.2266 31.4474 35.7024 31.888 35.0401 32.1909C34.5711 32.3836 34.102 32.4846 33.633 32.4846C32.888 32.4846 32.2074 32.2735 31.5819 31.8421C30.9841 31.4382 30.5427 30.9151 30.2575 30.245C30.0736 29.8045 29.9908 29.3364 29.9908 28.8407C29.9908 28.547 30.092 28.3084 30.2943 28.1064C30.4967 27.9045 30.7358 27.8036 31.0117 27.8036C31.2876 27.8036 31.5268 27.9045 31.7291 28.1064C31.9314 28.3084 32.0326 28.5562 32.0326 28.8407C32.0326 29.1253 32.1246 29.4373 32.2993 29.731C32.4925 29.988 32.7224 30.19 32.9983 30.3093C33.2099 30.3919 33.4214 30.4378 33.6421 30.4378C33.9733 30.4378 34.2676 30.346 34.5343 30.1716C34.801 29.9789 34.9942 29.7494 35.1137 29.474C35.1965 29.2629 35.2333 29.0518 35.2333 28.8316C35.2333 28.5837 35.1873 28.3543 35.0861 28.1523C35.0034 27.9137 34.8654 27.6659 34.6722 27.4089C34.4883 27.1794 34.2676 26.9224 34.0008 26.6471C33.7341 26.3717 33.3846 26.0505 32.9523 25.6925C32.6856 25.463 32.4281 25.2244 32.1522 24.9766C31.8855 24.7379 31.6279 24.4809 31.398 24.2056C30.8554 23.6273 30.4691 23.0399 30.2391 22.4525C30.046 21.9568 29.9448 21.4704 29.9448 21.0023C29.9448 20.6351 30 20.2772 30.1104 19.9284C30.2207 19.5888 30.3679 19.2584 30.5702 18.9555C31.0117 18.3497 31.5544 17.9183 32.189 17.6521C32.6212 17.4594 33.0903 17.3584 33.5962 17.3584C34.3595 17.3584 35.0401 17.5695 35.6472 17.9825C36.2266 18.3864 36.6681 18.9096 36.9716 19.5796C37.1555 20.0202 37.2383 20.4975 37.2383 21.0023C37.2383 21.2776 37.1371 21.5163 36.9348 21.7182C36.7324 21.9201 36.4933 22.0211 36.2174 22.0211C35.9415 22.0211 35.7024 21.9201 35.5 21.7182C35.2977 21.5163 35.1965 21.2776 35.1965 21.0023C35.1965 20.6902 35.1045 20.3781 34.9298 20.0936C34.7366 19.8274 34.4975 19.6347 34.2032 19.5154C34.01 19.4327 33.7985 19.3869 33.5778 19.3869C33.2559 19.3869 32.9615 19.4878 32.6856 19.6806" fill="white"/>
</svg>
