<svg width="314" height="74" viewBox="0 0 314 74" fill="none" xmlns="http://www.w3.org/2000/svg">
<g clip-path="url(#clip0_1_108)">
<path d="M26.9429 30.1884L26.9194 29.7538L26.4893 29.6839C25.543 29.5209 24.5419 29.4355 23.5408 29.4355C22.5397 29.4355 21.5778 29.5209 20.7331 29.6839L20.4437 29.746L20.3343 30.0099L14.1792 44.813L8.20409 30.0099L8.08678 29.7305L7.78176 29.6839C6.74941 29.5209 5.70923 29.4355 4.67688 29.4355C3.64452 29.4355 2.65127 29.5131 1.57982 29.6761L1.13403 29.746L1.11838 30.1962L0.0156417 58.1723L0 58.6458L0.469252 58.7234C1.37647 58.8864 2.27587 58.9641 3.15181 58.9641C3.973 58.9641 4.82548 58.8864 5.68577 58.7234L6.11592 58.6458L6.13156 58.2111L6.60863 41.5838L10.9649 52.5522L11.0743 52.8239L11.3637 52.886C11.7391 52.9636 12.1145 53.018 12.4899 53.0568C12.8497 53.0801 13.2016 53.0956 13.5614 53.0956C13.9524 53.0956 14.3669 53.0723 14.7893 53.0335C15.1568 53.0025 15.5401 52.9559 15.9546 52.9016L16.2596 52.8627L16.3769 52.5833L21.1476 41.6304L21.7655 58.2266L21.7811 58.6613L22.2113 58.739C23.1107 58.902 24.0022 58.9796 24.9407 58.9796C25.8792 58.9796 26.8412 58.902 27.8501 58.739L28.3272 58.6691L28.3037 58.1801L26.9664 30.204L26.9429 30.1884ZM46.1118 39.1464C44.4929 37.7647 42.2327 37.066 39.3937 37.066C38.3614 37.066 37.2508 37.1592 36.0933 37.3455C34.9202 37.524 33.7314 37.819 32.5504 38.2226L32.1829 38.3468V38.735C32.1829 39.6199 32.2845 40.3884 32.4879 41.0327C32.6756 41.6537 32.965 42.329 33.3404 43.0354L33.5593 43.4391L33.9973 43.2838C35.5224 42.7637 36.9771 42.492 38.3301 42.492C38.9636 42.492 39.5345 42.5308 40.035 42.6085C40.4964 42.6706 40.8875 42.8025 41.1847 42.9811C41.4741 43.1518 41.693 43.3847 41.8416 43.6797C41.9981 43.9669 42.0763 44.355 42.0841 44.8285C41.3646 44.782 40.7076 44.7509 40.1289 44.7509C39.0652 44.7509 37.9703 44.8674 36.8832 45.1002C35.7805 45.3331 34.7638 45.7212 33.8722 46.2568C32.9415 46.8157 32.1907 47.5532 31.6119 48.4536C31.0254 49.3774 30.7282 50.5262 30.7282 51.8769C30.7282 53.2276 30.9628 54.3531 31.4321 55.2691C31.8935 56.2006 32.5739 56.9769 33.4498 57.5668C34.3101 58.1568 35.3425 58.5759 36.5156 58.8243C37.6575 59.065 38.9323 59.1892 40.2931 59.1892C41.959 59.1892 43.4918 59.0572 44.8214 58.7933C46.19 58.5216 47.2928 58.2422 48.2156 57.9549L48.591 57.8385V45.7678C48.591 42.7637 47.7542 40.5281 46.104 39.1309L46.1118 39.1464ZM42.0997 53.6545C41.9198 53.6856 41.7321 53.7166 41.5366 53.7477C41.169 53.8098 40.8015 53.833 40.4495 53.833C40.1367 53.833 39.7613 53.8175 39.2999 53.7709C38.901 53.7399 38.5256 53.6467 38.1737 53.4993C37.853 53.3673 37.5714 53.1499 37.3446 52.8627C37.1413 52.5988 37.0396 52.1874 37.0396 51.644C37.0396 50.8134 37.3134 50.2623 37.8921 49.9052C38.5412 49.5093 39.4641 49.3075 40.6451 49.3075C40.9344 49.3075 41.2394 49.323 41.5601 49.3618C41.7634 49.3851 41.9355 49.4007 42.0997 49.4239V53.6468V53.6545ZM50.2569 37.9587C50.0927 38.6806 50.0066 39.4181 50.0066 40.14C50.0066 40.466 50.0223 40.8231 50.0614 41.2578C50.1083 41.6692 50.1709 42.0496 50.2569 42.3989L50.3507 42.8181H52.8691V58.6458L53.3227 58.7234C54.2768 58.8864 55.2231 58.9641 56.1147 58.9641C57.0063 58.9641 57.9917 58.8864 58.9459 58.7234L59.3995 58.6458V37.5318H50.3429L50.2491 37.951L50.2569 37.9587ZM52.1183 35.1565L52.4937 35.2263C52.9473 35.3039 53.4556 35.3583 54.0109 35.3893C54.5193 35.4204 55.0042 35.4281 55.45 35.4281C55.927 35.4281 56.4197 35.4126 56.9124 35.3893C57.4521 35.3583 57.9526 35.3039 58.4062 35.2263L58.7816 35.1565L58.8442 34.7839C58.9224 34.3259 58.9772 33.8601 59.0084 33.4021C59.0397 32.8976 59.0475 32.4706 59.0475 32.0903C59.0475 31.6866 59.0319 31.2442 59.0084 30.7551C58.985 30.3126 58.9302 29.8547 58.8442 29.3967L58.7816 29.0241L58.4062 28.9542C57.937 28.8688 57.4364 28.8145 56.889 28.7679C56.3415 28.7291 55.841 28.7058 55.403 28.7058C54.9651 28.7058 54.5114 28.7291 53.964 28.7679C53.44 28.8067 52.9394 28.8688 52.478 28.9542L52.1026 29.0241L52.0401 29.3967C51.8758 30.3592 51.7976 31.2442 51.7976 32.0903C51.7976 32.9364 51.8758 33.8679 52.0401 34.7916L52.1026 35.1642L52.1183 35.1565ZM76.7853 47.4756C76.3238 46.9865 75.7764 46.5829 75.1194 46.2568C74.5016 45.9386 73.8055 45.6747 73.0469 45.4573C73.0547 45.4573 70.818 44.7975 70.818 44.7975C70.2236 44.6112 69.7621 44.4094 69.4493 44.2075C69.3789 44.161 69.1599 44.0135 69.1599 43.4546C69.1599 43.0587 69.3085 42.8025 69.6292 42.624C70.0359 42.3989 70.6537 42.2902 71.4436 42.2902C72.2335 42.2902 72.9843 42.3834 73.696 42.5619C74.4312 42.7482 75.1038 42.9733 75.706 43.2139L76.1674 43.408L76.4021 42.9655C76.7071 42.3833 76.9573 41.7313 77.1841 40.9628C77.4031 40.1943 77.5439 39.4491 77.5986 38.7505L77.6299 38.3391L77.2389 38.2071C76.1831 37.8345 75.1429 37.5473 74.134 37.361C73.1251 37.1747 72.0771 37.0816 71.0213 37.0816C68.4482 37.0816 66.3757 37.6793 64.8585 38.8669C63.3021 40.0856 62.5122 41.7856 62.5122 43.9281C62.5122 45.7057 62.9814 47.0719 63.9043 47.9879C64.7959 48.865 66.0238 49.5326 67.5645 49.9673C67.5645 49.9673 69.9968 50.6659 69.9889 50.6659C70.6068 50.86 71.0839 51.0696 71.4202 51.3102C71.5062 51.3723 71.7643 51.5586 71.7643 52.2107C71.7643 52.5134 71.6861 52.7463 71.5375 52.9171C71.3341 53.1344 71.0917 53.313 70.7867 53.4527C70.466 53.6002 70.1141 53.7011 69.7387 53.7554C69.3242 53.8175 68.9488 53.8486 68.6203 53.8486C67.8304 53.8486 67.0561 53.7709 66.3288 53.6079C65.5858 53.4449 64.7881 53.1965 63.9591 52.8705L63.482 52.6842L63.263 53.15C62.9345 53.8486 62.6686 54.5783 62.4653 55.3157C62.2619 56.0531 62.1368 56.7983 62.0742 57.5435L62.0429 57.9472L62.4262 58.0869C63.0127 58.3043 63.5289 58.475 64.006 58.5992C64.4674 58.7312 64.9601 58.8476 65.4763 58.9485C65.9768 59.0339 66.4852 59.1038 67.0483 59.1504C67.6036 59.1892 68.1901 59.2125 68.808 59.2125C70.2392 59.2125 71.5531 59.0262 72.7028 58.6613C73.8681 58.2887 74.8692 57.7764 75.6825 57.1321C76.5037 56.4801 77.145 55.6961 77.5908 54.7878C78.0288 53.8874 78.2478 52.9016 78.2478 51.8691C78.2478 50.8367 78.1226 50.0139 77.8646 49.3153C77.5986 48.5856 77.2311 47.9801 76.7696 47.4911L76.7853 47.4756ZM93.1778 53.5691L93.0136 53.1422L92.56 53.2276C92.3957 53.2586 92.208 53.2974 92.0047 53.3285L91.5667 53.4061C91.207 53.4682 90.8628 53.4915 90.5109 53.4915C90.0651 53.4915 89.6819 53.4449 89.369 53.3595C89.1031 53.2897 88.892 53.1499 88.7043 52.9404C88.5166 52.723 88.368 52.4048 88.2585 51.9933C88.1412 51.5586 88.0786 50.9687 88.0786 50.1847V42.8258H92.7242L92.8102 42.3833C92.8884 41.9719 92.9432 41.576 92.9823 41.1957C93.0058 40.8774 93.0136 40.5281 93.0136 40.1012C93.0136 39.7053 92.9979 39.387 92.9823 39.0843C92.9432 38.7272 92.8884 38.3468 92.8102 37.9665L92.7242 37.5395H88.0864V31.6633H86.3737L86.2094 31.8729L78.8734 41.1724L78.7092 41.382L78.7718 41.6381L78.9673 42.4222L79.069 42.8336H81.5013V51.3956C81.5013 54.0426 82.1973 55.991 83.566 57.1942C84.9112 58.3819 86.8664 58.9796 89.369 58.9796C90.683 58.9796 91.9812 58.8321 93.2247 58.5371L93.5845 58.4517L93.6314 58.0869C93.6549 57.8928 93.6705 57.7143 93.694 57.4892C93.7096 57.2951 93.7096 57.0467 93.7096 56.7285C93.7096 56.2627 93.6705 55.7504 93.5923 55.2225C93.4985 54.6326 93.3655 54.0892 93.17 53.5769L93.1778 53.5691ZM114.177 43.8738C113.755 42.5076 113.113 41.3121 112.269 40.3185C111.4 39.3094 110.306 38.5099 109.015 37.9354C107.732 37.3688 106.2 37.0738 104.479 37.0738C102.758 37.0738 101.241 37.361 99.9663 37.9354C98.6837 38.5176 97.6044 39.3172 96.7519 40.3185C95.9073 41.3199 95.266 42.5153 94.8437 43.8738C94.4213 45.2089 94.2102 46.6605 94.2102 48.1975C94.2102 49.7344 94.4213 51.1783 94.8437 52.4901C95.266 53.8253 95.9151 55.0052 96.7519 55.9988C97.5966 57.0002 98.6759 57.7997 99.9663 58.3664C101.241 58.9253 102.758 59.2125 104.479 59.2125C106.2 59.2125 107.725 58.933 109.007 58.3664C110.306 57.8075 111.4 57.0079 112.269 55.9988C113.113 55.013 113.755 53.8253 114.177 52.4824C114.584 51.155 114.795 49.7112 114.795 48.1975C114.795 46.6838 114.584 45.2322 114.185 43.8815L114.177 43.8738ZM107.169 52.5755C106.63 53.4837 105.754 53.9262 104.479 53.9262C103.204 53.9262 102.375 53.4837 101.836 52.5755C101.249 51.5819 100.952 50.107 100.952 48.1975C100.952 46.2879 101.249 44.813 101.836 43.8272C102.375 42.919 103.235 42.4765 104.479 42.4765C105.722 42.4765 106.63 42.919 107.169 43.8272C107.756 44.8208 108.053 46.2957 108.053 48.1975C108.053 50.0993 107.756 51.5819 107.169 52.5755Z" fill="#00593C"/>
<path d="M118.275 29.6682C118.564 29.6139 118.885 29.575 119.237 29.5518C119.589 29.5285 119.91 29.5129 120.199 29.5129C120.488 29.5129 120.809 29.5285 121.177 29.5518C121.544 29.575 121.873 29.6139 122.154 29.6682V40.6444C122.623 39.8604 123.359 39.1928 124.352 38.6184C125.345 38.0517 126.549 37.7645 127.957 37.7645C129.162 37.7645 130.272 37.9586 131.289 38.3467C132.313 38.7348 133.189 39.3403 133.917 40.1553C134.652 40.9704 135.215 42.0106 135.622 43.2681C136.028 44.5256 136.232 46.0083 136.232 47.7238C136.232 51.1471 135.254 53.8251 133.307 55.758C131.359 57.6908 128.559 58.6612 124.899 58.6612C123.75 58.6612 122.569 58.5525 121.349 58.3274C120.129 58.11 119.104 57.8539 118.267 57.5744V29.6682H118.275ZM122.154 54.9584C122.623 55.1137 123.132 55.2224 123.671 55.2845C124.211 55.3543 124.758 55.3854 125.337 55.3854C126.299 55.3854 127.199 55.2301 128.02 54.9352C128.841 54.6324 129.553 54.1822 130.155 53.569C130.757 52.9635 131.234 52.1795 131.586 51.2324C131.938 50.2854 132.118 49.1676 132.118 47.8713C132.118 45.7211 131.735 44.0444 130.976 42.8489C130.217 41.6535 128.966 41.0558 127.214 41.0558C126.612 41.0558 126.018 41.1489 125.423 41.343C124.837 41.5371 124.289 41.8476 123.796 42.2745C123.296 42.7014 122.897 43.2759 122.6 43.99C122.303 44.7042 122.146 45.5658 122.146 46.5749V54.9429L122.154 54.9584Z" fill="#00593C"/>
<path d="M150.458 45.0382C150.458 43.509 150.059 42.4455 149.277 41.8478C148.495 41.2501 147.353 40.9551 145.867 40.9551C144.96 40.9551 144.099 41.025 143.302 41.1724C142.504 41.3199 141.722 41.4985 140.963 41.7391C140.471 40.8852 140.22 39.8528 140.22 38.6652C141.104 38.3779 142.082 38.1606 143.153 38.0053C144.225 37.8501 145.265 37.7725 146.25 37.7725C148.87 37.7725 150.857 38.3624 152.218 39.5423C153.578 40.7222 154.251 42.6085 154.251 45.2012V57.6911C153.344 57.9006 152.225 58.1102 150.927 58.3354C149.613 58.5605 148.284 58.6691 146.931 58.6691C145.648 58.6691 144.491 58.5527 143.458 58.3198C142.426 58.0869 141.55 57.7066 140.83 57.1943C140.119 56.6742 139.556 56.0144 139.165 55.2071C138.773 54.4075 138.578 53.4294 138.578 52.2884C138.578 51.1473 138.805 50.1925 139.266 49.3464C139.72 48.508 140.345 47.8016 141.128 47.2505C141.91 46.6916 142.809 46.2724 143.834 46.0085C144.85 45.7368 145.922 45.5971 147.048 45.5971C147.885 45.5971 148.565 45.6204 149.105 45.6592C149.644 45.698 150.09 45.7446 150.458 45.7911V45.0537V45.0382ZM150.458 48.8108C150.059 48.7564 149.566 48.7021 148.964 48.6555C148.37 48.6012 147.861 48.5779 147.439 48.5779C145.82 48.5779 144.584 48.8728 143.732 49.4706C142.879 50.0683 142.457 50.9765 142.457 52.1952C142.457 52.9715 142.606 53.5769 142.895 54.0194C143.184 54.4619 143.544 54.7956 143.974 55.0285C144.404 55.2614 144.882 55.4089 145.406 55.4555C145.922 55.5098 146.43 55.5331 146.892 55.5331C147.494 55.5331 148.119 55.502 148.753 55.4399C149.394 55.3778 149.957 55.2769 150.458 55.1527V48.8108Z" fill="#00593C"/>
<path d="M158.584 38.2304C158.865 38.1761 159.147 38.1451 159.428 38.114C159.702 38.0907 159.984 38.0752 160.273 38.0752C160.562 38.0752 160.828 38.0907 161.071 38.114C161.313 38.1373 161.587 38.1761 161.876 38.2304C161.955 38.6186 162.033 39.1464 162.103 39.8062C162.181 40.4661 162.22 41.025 162.22 41.4597C162.486 41.0172 162.815 40.5747 163.222 40.14C163.62 39.6976 164.09 39.3017 164.606 38.9524C165.13 38.603 165.732 38.3158 166.412 38.0985C167.093 37.8811 167.844 37.7725 168.649 37.7725C170.949 37.7725 172.646 38.4245 173.748 39.7364C174.843 41.0482 175.399 42.9889 175.399 45.5583V58.2034C175.117 58.25 174.781 58.2888 174.413 58.3198C174.046 58.3431 173.725 58.3586 173.436 58.3586C173.146 58.3586 172.833 58.3431 172.474 58.3198C172.122 58.2888 171.801 58.25 171.512 58.2034V46.6062C171.512 44.7587 171.222 43.408 170.651 42.5386C170.073 41.6692 169.165 41.2345 167.906 41.2345C167.171 41.2345 166.483 41.3665 165.834 41.6227C165.177 41.8788 164.606 42.2825 164.105 42.8336C163.613 43.377 163.214 44.0834 162.916 44.9528C162.611 45.8222 162.463 46.8624 162.463 48.0888V58.2034C162.174 58.25 161.853 58.2888 161.501 58.3198C161.149 58.3431 160.828 58.3586 160.539 58.3586C160.25 58.3586 159.929 58.3431 159.561 58.3198C159.194 58.2888 158.865 58.25 158.584 58.2034V38.2382V38.2304Z" fill="#00593C"/>
<path d="M179.661 29.6682C179.95 29.6139 180.271 29.575 180.623 29.5518C180.975 29.5285 181.296 29.5129 181.585 29.5129C181.874 29.5129 182.195 29.5285 182.562 29.5518C182.93 29.575 183.259 29.6139 183.54 29.6682V58.1876C183.251 58.2342 182.93 58.273 182.562 58.3041C182.195 58.3274 181.874 58.3429 181.585 58.3429C181.296 58.3429 180.975 58.3274 180.623 58.3041C180.271 58.273 179.95 58.2342 179.661 58.1876V29.6682ZM184.604 47.8402L190.993 38.2302C191.338 38.1759 191.674 38.1448 192.018 38.1138C192.354 38.0905 192.706 38.075 193.074 38.075C193.465 38.075 193.84 38.0905 194.192 38.1138C194.544 38.1371 194.904 38.1759 195.271 38.2302L188.882 47.5685L196.366 58.1954C195.999 58.242 195.655 58.2808 195.311 58.3119C194.966 58.3351 194.614 58.3507 194.247 58.3507C193.879 58.3507 193.512 58.3351 193.152 58.3119C192.784 58.2808 192.417 58.242 192.057 58.1954L184.612 47.848L184.604 47.8402Z" fill="#00593C"/>
<path d="M208.934 45.0382C208.934 43.509 208.536 42.4455 207.754 41.8478C206.964 41.2501 205.837 40.9551 204.344 40.9551C203.429 40.9551 202.568 41.025 201.778 41.1724C200.981 41.3199 200.199 41.4985 199.44 41.7391C198.939 40.8852 198.697 39.8528 198.697 38.6652C199.581 38.3779 200.566 38.1606 201.638 38.0053C202.709 37.8501 203.741 37.7725 204.742 37.7725C207.355 37.7725 209.333 38.3624 210.702 39.5423C212.063 40.7222 212.743 42.6085 212.743 45.2012V57.6911C211.828 57.9006 210.718 58.1102 209.412 58.3354C208.098 58.5605 206.776 58.6691 205.415 58.6691C204.132 58.6691 202.975 58.5527 201.943 58.3198C200.91 58.0869 200.034 57.7066 199.315 57.1943C198.603 56.6742 198.048 56.0144 197.649 55.2071C197.258 54.4075 197.062 53.4294 197.062 52.2884C197.062 51.1473 197.289 50.1925 197.751 49.3464C198.212 48.508 198.83 47.8016 199.612 47.2505C200.394 46.6916 201.293 46.2724 202.318 46.0085C203.343 45.7368 204.414 45.5971 205.532 45.5971C206.369 45.5971 207.057 45.6204 207.589 45.6592C208.129 45.698 208.575 45.7446 208.942 45.7911V45.0537L208.934 45.0382ZM208.934 48.8108C208.536 48.7564 208.043 48.7021 207.441 48.6555C206.838 48.6012 206.33 48.5779 205.916 48.5779C204.289 48.5779 203.061 48.8728 202.208 49.4706C201.364 50.0683 200.942 50.9765 200.942 52.1952C200.942 52.9715 201.082 53.5769 201.364 54.0194C201.653 54.4619 202.013 54.7956 202.443 55.0285C202.881 55.2614 203.35 55.4089 203.874 55.4555C204.398 55.5098 204.899 55.5331 205.36 55.5331C205.963 55.5331 206.588 55.502 207.222 55.4399C207.863 55.3778 208.426 55.2769 208.934 55.1527V48.8108Z" fill="#00593C"/>
<path d="M216.458 54.5704C217.162 54.8576 217.944 55.0828 218.789 55.2535C219.641 55.4243 220.486 55.5097 221.323 55.5097C221.925 55.5097 222.496 55.4476 223.043 55.3156C223.591 55.1837 224.068 54.9896 224.475 54.7334C224.873 54.4695 225.21 54.1513 225.452 53.7787C225.702 53.4061 225.828 52.9791 225.828 52.5134C225.828 51.9933 225.726 51.5663 225.53 51.2248C225.335 50.891 225.069 50.6038 224.748 50.3709C224.428 50.138 224.044 49.9362 223.606 49.7654C223.184 49.5947 222.715 49.4394 222.222 49.2764L220.846 48.7718C219.172 48.1431 217.96 47.4444 217.201 46.6682C216.443 45.8919 216.059 44.8362 216.059 43.5166C216.059 41.7545 216.701 40.3495 217.968 39.3093C219.235 38.2769 221.096 37.7568 223.552 37.7568C224.568 37.7568 225.569 37.85 226.547 38.044C227.525 38.2381 228.385 38.4632 229.12 38.7271C229.073 39.2472 228.964 39.7673 228.823 40.2874C228.682 40.8075 228.51 41.281 228.299 41.7312C227.72 41.5217 227.04 41.3198 226.242 41.1258C225.444 40.9317 224.592 40.8386 223.669 40.8386C222.746 40.8386 221.847 41.0093 221.104 41.3431C220.361 41.6769 219.985 42.2824 219.985 43.1363C219.985 43.5787 220.079 43.9591 220.259 44.2696C220.447 44.5801 220.689 44.844 221.01 45.0691C221.323 45.2865 221.682 45.4728 222.089 45.628C222.488 45.7833 222.934 45.9385 223.395 46.0938L225.124 46.676C225.749 46.8855 226.344 47.1339 226.899 47.4134C227.462 47.7006 227.947 48.0577 228.354 48.4846C228.76 48.9116 229.089 49.4316 229.331 50.0371C229.582 50.6504 229.707 51.38 229.707 52.2339C229.707 53.1887 229.511 54.0736 229.12 54.8576C228.729 55.6494 228.166 56.3248 227.454 56.8837C226.735 57.4426 225.867 57.8773 224.85 58.1878C223.833 58.4983 222.707 58.6535 221.479 58.6535C220.251 58.6535 219.133 58.5681 218.187 58.3974C217.248 58.2266 216.372 58.0015 215.559 57.7142C215.606 57.2019 215.723 56.6741 215.887 56.1385C216.059 55.6028 216.247 55.0828 216.458 54.5627V54.5704Z" fill="#00593C"/>
<path d="M297.138 0C297.138 0 299.133 7.66936 295.449 12.7926C291.773 17.9159 283.811 18.5291 283.811 18.5291C283.811 18.5291 281.817 10.852 285.501 5.73649C289.184 0.621 297.138 0 297.138 0V0Z" fill="#00593C"/>
<path d="M299.649 18.599C293.15 18.599 289.427 21.999 281.191 21.999C281.113 21.999 281.051 21.999 280.973 21.999C280.409 20.8114 279.885 19.0105 279.627 16.2625C279.26 12.2493 280.699 9.84293 278.525 7.69271C276.124 5.30186 273.464 6.83108 273.464 6.83108C273.464 6.83108 273.464 11.3178 275.146 15.8201C275.959 17.978 277.258 20.1748 278.384 21.8671C272.002 21.2305 268.436 18.599 262.726 18.599C253.936 18.599 248.375 30.3049 248.375 37.3998C248.375 52.0244 256.65 69.1796 269.061 73.2859C275.248 75.3352 277.273 72.3156 281.184 72.3156C285.094 72.3156 287.12 75.3275 293.306 73.2859C305.718 69.1796 313.992 52.0244 313.992 37.3998C313.992 30.3049 308.439 18.599 299.641 18.599H299.649Z" fill="#EA5B0C"/>
<path d="M281.191 66.5326C283.147 66.5326 284.938 67.6116 289.091 65.9038C297.021 62.6436 303.207 52.071 304.474 42.5387C305.428 35.304 301.839 27.557 295.128 26.5246C290.365 25.7872 286.729 28.4885 281.199 30.041C275.662 28.4885 272.025 25.795 267.27 26.5246C260.552 27.557 256.97 35.304 257.932 42.5387C259.191 52.071 265.378 62.6436 273.308 65.9038C277.453 67.6116 279.252 66.5326 281.207 66.5326H281.191Z" fill="#F39200"/>
<path d="M290.6 34.4501C287.573 33.0451 284.023 34.978 281.192 38.0752C278.368 34.978 274.817 33.0529 271.783 34.4501C267.153 36.5926 264.846 40.4195 267.442 47.6774C270.039 54.9276 281.192 60.734 281.192 60.734C281.192 60.734 292.336 54.9276 294.941 47.6774C297.537 40.4195 295.23 36.6003 290.6 34.4501Z" fill="#FDC300"/>
</g>
<defs>
<clipPath id="clip0_1_108">
<rect width="314" height="74" fill="white"/>
</clipPath>
</defs>
</svg>
