<?xml version="1.0" standalone="no"?>
<!DOCTYPE svg PUBLIC "-//W3C//DTD SVG 20010904//EN"
 "http://www.w3.org/TR/2001/REC-SVG-20010904/DTD/svg10.dtd">
<svg version="1.0" xmlns="http://www.w3.org/2000/svg"
 width="808.000000pt" height="808.000000pt" viewBox="0 0 808.000000 808.000000"
 preserveAspectRatio="xMidYMid meet">
<metadata>
Created by potrace 1.14, written by Peter Selinger 2001-2017
</metadata>
<g transform="translate(0.000000,808.000000) scale(0.100000,-0.100000)"
fill="#000000" stroke="none">
<path d="M0 4040 l0 -3120 4040 0 4040 0 0 3120 0 3120 -4040 0 -4040 0 0
-3120z m1385 2445 c196 -52 361 -212 410 -400 22 -86 20 -192 -5 -233 -57 -94
-205 -97 -265 -5 -9 14 -21 56 -26 94 -10 83 -35 135 -85 179 -108 94 -257 83
-353 -26 -75 -85 -80 -191 -15 -314 47 -89 134 -183 329 -355 275 -242 385
-396 430 -599 73 -331 -175 -657 -520 -683 -89 -6 -194 15 -283 59 -87 43
-216 169 -255 250 -61 127 -76 277 -34 338 37 55 72 75 132 75 90 0 147 -59
158 -165 13 -118 84 -205 189 -230 166 -40 317 85 306 255 -8 134 -93 249
-356 483 -236 211 -327 317 -398 465 -60 128 -76 244 -49 372 45 213 205 383
416 439 72 19 201 20 274 1z m972 -5 c41 -24 41 -25 278 -560 108 -245 200
-449 205 -453 28 -30 49 10 259 487 117 266 222 493 234 504 70 66 190 52 245
-28 l22 -33 0 -1069 c0 -1172 4 -1098 -60 -1151 -62 -53 -149 -45 -210 18
l-35 36 -5 612 c-3 337 -7 613 -8 615 -1 2 -14 2 -29 0 -25 -3 -35 -23 -142
-265 -64 -144 -125 -271 -136 -283 -63 -69 -168 -67 -233 3 -13 13 -74 140
-136 282 -62 142 -120 261 -129 266 -10 6 -21 4 -31 -7 -14 -14 -16 -82 -16
-608 l0 -593 -22 -33 c-32 -47 -68 -71 -116 -77 -55 -7 -123 26 -154 75 l-23
37 -3 1043 c-1 687 1 1056 8 1081 13 49 45 90 84 107 46 20 116 17 153 -6z
m2325 -12 c74 -34 141 -97 173 -162 20 -42 53 -202 159 -787 74 -404 156 -848
182 -986 l47 -253 -24 -47 c-26 -51 -88 -93 -139 -93 -42 0 -113 42 -134 79
-17 29 -41 146 -121 578 -11 63 -11 63 -289 63 -192 0 -256 -3 -270 -13 -14
-10 -30 -77 -71 -304 -33 -185 -59 -304 -71 -325 -12 -20 -38 -42 -67 -57 -68
-34 -128 -24 -179 30 -21 22 -40 54 -43 73 -7 37 320 1861 355 1978 33 109
124 206 229 242 71 24 192 17 263 -16z m1025 16 c19 -9 45 -33 59 -53 l24 -36
0 -947 c0 -935 0 -948 20 -968 19 -19 33 -20 245 -20 251 0 275 -5 318 -62 55
-71 39 -177 -34 -229 l-34 -24 -340 -3 c-214 -2 -353 1 -375 7 -20 6 -51 27
-70 46 l-35 36 -3 1081 -2 1082 24 36 c43 65 130 88 203 54z m1089 0 c19 -9
44 -31 57 -48 l22 -31 5 -958 c5 -934 5 -959 24 -973 16 -11 66 -14 245 -14
253 0 276 -5 318 -69 49 -73 35 -166 -35 -219 l-35 -27 -363 0 c-352 0 -363 1
-391 21 -15 11 -38 36 -50 54 l-23 33 0 1071 0 1071 24 36 c44 65 130 87 202
53z m-5366 -2688 c225 -78 380 -289 380 -517 0 -52 -5 -73 -22 -99 -39 -56
-73 -75 -134 -74 -92 0 -148 60 -159 169 -28 259 -354 324 -471 94 l-24 -48 0
-673 c0 -757 -4 -714 76 -790 51 -49 100 -68 171 -68 137 1 223 82 244 228 11
78 33 118 80 150 28 20 44 23 90 20 130 -9 179 -116 133 -292 -65 -251 -289
-426 -547 -426 -218 0 -405 115 -502 307 -62 124 -59 86 -62 828 -3 440 0 704
7 750 32 213 218 412 433 461 89 20 217 12 307 -20z m1345 19 c112 -29 211
-119 248 -224 9 -25 75 -370 147 -766 72 -396 151 -828 176 -960 29 -156 43
-251 39 -273 -4 -19 -23 -52 -44 -75 -35 -37 -43 -41 -97 -45 -50 -3 -64 0
-93 20 -64 43 -68 56 -126 366 -29 162 -59 300 -66 308 -9 11 -59 14 -274 14
-227 0 -264 -2 -276 -16 -7 -9 -36 -147 -65 -307 -56 -308 -60 -321 -124 -365
-39 -26 -106 -29 -150 -7 -34 18 -76 69 -85 105 -5 22 313 1811 347 1950 33
136 131 240 260 274 70 19 111 19 183 1z m1487 0 c286 -50 509 -255 589 -541
29 -102 31 -266 5 -369 -40 -158 -147 -322 -269 -412 -147 -108 -277 -151
-489 -160 -75 -3 -143 -10 -150 -14 -10 -7 -14 -87 -18 -378 -5 -355 -6 -371
-26 -398 -78 -105 -214 -97 -271 17 l-23 44 0 1046 c0 997 1 1047 19 1086 19
41 59 77 96 87 50 12 455 6 537 -8z m1607 -18 c219 -76 380 -294 381 -515 0
-67 -19 -113 -61 -145 -68 -51 -148 -45 -207 16 -27 28 -35 47 -47 116 -17 98
-49 158 -102 193 -107 70 -219 64 -310 -16 -60 -53 -83 -103 -83 -186 0 -55 6
-77 34 -135 48 -99 107 -168 253 -297 329 -291 432 -415 495 -598 74 -216 21
-439 -144 -601 -192 -186 -484 -211 -706 -60 -125 85 -212 218 -239 366 -19
107 -11 156 34 206 101 112 272 39 273 -116 1 -88 86 -202 169 -225 140 -39
278 33 317 165 45 156 -39 295 -334 556 -70 62 -158 145 -196 183 -272 278
-342 545 -214 816 63 131 229 261 381 296 86 19 219 11 306 -19z"/>
<path d="M4497 6112 c-11 -12 -29 -87 -52 -212 -20 -106 -56 -301 -80 -433
-42 -222 -44 -242 -30 -264 l16 -23 187 2 c182 3 187 4 198 25 9 18 -5 107
-68 455 -67 366 -82 436 -100 451 -26 22 -51 22 -71 -1z"/>
<path d="M2643 3438 c-6 -7 -34 -139 -62 -293 -28 -154 -62 -338 -76 -410 -46
-243 -50 -238 194 -233 186 3 195 6 194 61 -1 55 -152 859 -164 873 -14 17
-73 18 -86 2z"/>
<path d="M3948 3493 c-17 -18 -18 -52 -18 -409 0 -319 3 -394 14 -409 31 -43
260 -29 371 24 329 153 321 617 -12 774 -64 30 -76 32 -203 35 -124 4 -136 2
-152 -15z"/>
</g>
</svg>
